<svg width="92" height="93" viewBox="0 0 92 93" fill="none" xmlns="http://www.w3.org/2000/svg">
<g clip-path="url(#clip0_151_153)">
<path fill-rule="evenodd" clip-rule="evenodd" d="M75.5012 1.54688H16.3854C7.42272 1.54688 0.17627 8.79332 0.17627 17.756V74.5835C0.17627 83.5462 7.42272 90.7926 16.3854 90.7926H75.5012C84.4639 90.7926 91.7104 83.5462 91.7104 74.5835V17.756C91.7104 8.79332 84.4639 1.54688 75.5012 1.54688ZM30.2301 54.9419H44.4178L47.5452 64.0191C47.6215 64.2861 47.8885 64.4767 48.1555 64.4386H56.1266C56.508 64.4386 56.6224 64.2479 56.508 63.8284L42.5872 24.545C42.549 24.3543 42.3965 24.2399 42.0913 24.2399H32.2133C32.0226 24.278 31.87 24.4687 31.9082 24.6594C31.9082 25.4985 31.8319 26.3375 31.6793 27.1385C31.5712 27.4627 31.4823 27.7679 31.3989 28.0538C31.3646 28.1715 31.3313 28.2859 31.2979 28.3971L19.0171 63.7521C18.9027 64.2098 19.0171 64.4386 19.4367 64.4386H26.6068C26.9501 64.4767 27.2552 64.2479 27.3315 63.9047L30.2301 54.9419ZM42.1295 47.1997H32.4421C33.0142 45.5978 33.5863 43.8053 34.1203 41.8602C34.4981 40.6796 34.8612 39.4989 35.2189 38.3364C35.4389 37.6212 35.6568 36.9129 35.8747 36.2156C36.4086 34.5756 36.8281 32.9356 37.1714 31.2956H37.2477C37.3965 31.8059 37.5453 32.3399 37.7008 32.8976C37.8242 33.3403 37.9517 33.7979 38.0867 34.2705C38.3918 35.3765 38.7351 36.4826 39.1165 37.6649C39.3072 38.256 39.4883 38.8377 39.6695 39.4193C39.8507 40.0009 40.0318 40.5825 40.2225 41.1737C40.5658 42.3179 40.909 43.4239 41.2523 44.4537C41.5955 45.4453 41.9006 46.3988 42.1295 47.1997ZM61.6186 29.5794C62.534 30.4566 63.7544 30.9524 65.013 30.9142C66.3097 30.9905 67.6065 30.4947 68.4837 29.5794C69.399 28.6259 69.8567 27.3673 69.8186 26.0706C69.8567 24.812 69.399 23.5915 68.56 22.6762C67.7209 21.799 66.5767 21.3413 65.0893 21.3413C63.8307 21.3413 62.6102 21.799 61.6949 22.6762C60.7796 23.5534 60.2837 24.7738 60.3219 26.0706C60.2837 27.3673 60.7414 28.6259 61.6186 29.5794ZM60.7414 34.6519V64.0191C60.7414 64.4005 60.9321 64.6293 61.3135 64.6293H68.7888C69.132 64.6293 69.2846 64.4386 69.2846 64.0191V34.6519C69.2846 34.3086 69.132 34.1179 68.7888 34.1179H61.2372C60.894 34.1179 60.7414 34.2705 60.7414 34.6519Z" fill="#fff"/>
</g>
<defs>
<clipPath id="clip0_151_153">
<rect width="91.5341" height="91.5341" fill="white" transform="translate(0.17627 0.631592)"/>
</clipPath>
</defs>
</svg>
