<svg width="93" height="93" viewBox="0 0 93 93" fill="none" xmlns="http://www.w3.org/2000/svg">
<g clip-path="url(#clip0_151_118)">
<path fill-rule="evenodd" clip-rule="evenodd" d="M19.8468 9.78491C14.624 9.78491 10.76 14.358 10.9327 19.3173C11.0986 24.0812 10.8832 30.2523 9.33 35.284C7.77213 40.3312 5.1382 43.5215 0.835205 43.9314V48.5796C5.13838 48.9896 7.77213 52.1799 9.33 57.2271C10.8832 62.2588 11.0986 68.4298 10.9329 73.1939C10.76 78.153 14.624 82.7261 19.8468 82.7261H73.3643C78.5872 82.7261 82.4511 78.153 82.2784 73.1939C82.1125 68.4298 82.3279 62.2588 83.8809 57.2271C85.439 52.1799 88.0663 48.9896 92.3693 48.5796V43.9314C88.0663 43.5215 85.439 40.3312 83.8809 35.284C82.3279 30.2523 82.1125 24.0812 82.2784 19.3173C82.4511 14.358 78.5872 9.78491 73.3643 9.78491H19.8468ZM62.1382 54.6764C62.1382 61.5052 57.0429 65.6453 48.5873 65.6453H32.64V26.8506H48.5047C55.5557 26.8506 60.1828 30.6684 60.1828 36.5292C60.1828 40.6426 57.0704 44.3257 53.1043 44.9709V45.186C58.5026 45.7776 62.1382 49.5146 62.1382 54.6764ZM47.0174 31.7705H38.8096V43.3578H45.7229C51.0662 43.3578 54.0132 41.2071 54.0132 37.3625C54.0132 33.76 51.4793 31.7705 47.0174 31.7705ZM38.8096 47.9553V60.7255H47.3203C52.884 60.7255 55.831 58.494 55.831 54.3001C55.831 50.106 52.8012 47.9553 46.9622 47.9553H38.8096Z" fill="#999D9E"/>
</g>
<defs>
<clipPath id="clip0_151_118">
<rect width="91.5341" height="91.5341" fill="white" transform="translate(0.835205 0.631592)"/>
</clipPath>
</defs>
</svg>
