<svg width="24" height="25" viewBox="0 0 24 25" fill="none" xmlns="http://www.w3.org/2000/svg">
<path d="M11.69 24.19C10.0753 24.19 8.55867 23.8867 7.14 23.28C5.73067 22.6733 4.48933 21.838 3.416 20.774C2.34267 19.7007 1.50267 18.4593 0.896 17.05C0.298667 15.6313 0 14.1147 0 12.5C0 10.8853 0.298667 9.37333 0.896 7.964C1.50267 6.54533 2.34267 5.29933 3.416 4.226C4.48933 3.15267 5.73067 2.31733 7.14 1.72C8.55867 1.11333 10.0753 0.809999 11.69 0.809999C13.3047 0.809999 14.8167 1.11333 16.226 1.72C17.6447 2.31733 18.8907 3.15267 19.964 4.226C21.0373 5.29933 21.8773 6.54533 22.484 7.964C23.0907 9.37333 23.394 10.8853 23.394 12.5C23.394 14.1147 23.0907 15.6313 22.484 17.05C21.8773 18.4593 21.0373 19.7007 19.964 20.774C18.8907 21.838 17.6447 22.6733 16.226 23.28C14.8167 23.8867 13.3047 24.19 11.69 24.19ZM11.69 21.838C13.006 21.838 14.2287 21.5907 15.358 21.096C16.4967 20.6107 17.4907 19.9387 18.34 19.08C19.1893 18.212 19.852 17.218 20.328 16.098C20.804 14.9687 21.042 13.7693 21.042 12.5C21.042 11.212 20.7947 10.0033 20.3 8.874C19.8147 7.73533 19.1427 6.73667 18.284 5.878C17.4253 5.01933 16.4313 4.352 15.302 3.876C14.1727 3.39067 12.9687 3.15267 11.69 3.162C10.3833 3.17133 9.16533 3.42333 8.036 3.918C6.90667 4.40333 5.91733 5.07533 5.068 5.934C4.21867 6.79267 3.55133 7.782 3.066 8.902C2.59 10.022 2.352 11.2213 2.352 12.5C2.352 13.816 2.59933 15.0433 3.094 16.182C3.58867 17.3113 4.26533 18.3007 5.124 19.15C5.992 19.9993 6.986 20.6573 8.106 21.124C9.23533 21.6 10.43 21.838 11.69 21.838ZM15.26 15.79L17.374 16.938C16.73 17.8247 15.9227 18.534 14.952 19.066C13.9813 19.598 12.922 19.864 11.774 19.864C10.486 19.864 9.31 19.5327 8.246 18.87C7.19133 18.2073 6.34667 17.3207 5.712 16.21C5.08667 15.09 4.774 13.8533 4.774 12.5C4.774 11.4733 4.956 10.5167 5.32 9.63C5.684 8.734 6.18333 7.95 6.818 7.278C7.462 6.59667 8.20867 6.06467 9.058 5.682C9.90733 5.29933 10.8127 5.108 11.774 5.108C12.922 5.108 13.9813 5.374 14.952 5.906C15.9227 6.438 16.73 7.152 17.374 8.048L15.26 9.182C14.8213 8.622 14.2893 8.19733 13.664 7.908C13.048 7.60933 12.418 7.46 11.774 7.46C10.906 7.46 10.1173 7.69333 9.408 8.16C8.708 8.61733 8.15267 9.22867 7.742 9.994C7.33133 10.7593 7.126 11.5947 7.126 12.5C7.126 13.4053 7.336 14.2407 7.756 15.006C8.176 15.762 8.736 16.3687 9.436 16.826C10.1453 17.2833 10.9247 17.512 11.774 17.512C12.4647 17.512 13.1133 17.3533 13.72 17.036C14.336 16.7187 14.8493 16.3033 15.26 15.79Z" fill="white"/>
</svg>
