<svg width="93" height="93" viewBox="0 0 93 93" fill="none" xmlns="http://www.w3.org/2000/svg">
<g clip-path="url(#clip0_151_47)">
<path fill-rule="evenodd" clip-rule="evenodd" d="M6.24707 0.563477L13.5921 82.9476L46.5528 92.0976L79.6043 82.9345L86.9573 0.563477H6.24707ZM23.9912 47.9587L23.0857 37.8547H46.5673H46.6021H59.8853L60.8049 27.508H46.6021H46.5673H22.1845L21.266 17.4038H46.5673H46.6021H71.8781L70.054 37.8547L69.8073 40.5678L67.2812 68.8756L46.6021 74.6069V74.6085L46.5557 74.6216L25.8582 68.8756L24.4425 53.0108H34.5856L35.3048 61.0693L46.5578 64.1078L46.5673 64.1053V64.1044L57.8365 61.0629L59.0093 47.9587H46.6021H46.5673H23.9912Z" fill="#fff"/>
</g>
<defs>
<clipPath id="clip0_151_47">
<rect width="91.5341" height="91.5341" fill="white" transform="translate(0.835205 0.563477)"/>
</clipPath>
</defs>
</svg>
