<svg width="92" height="93" viewBox="0 0 92 93" fill="none" xmlns="http://www.w3.org/2000/svg">
<g clip-path="url(#clip0_151_87)">
<path d="M91.6422 71.513C88.3127 72.3595 86.2532 71.5501 84.4058 68.7759L71.2646 50.5951L69.3651 48.0777L54.0189 68.8363C52.2656 71.3338 50.4264 72.4199 47.1538 71.5364L66.8051 45.1573L48.5097 21.3293C51.6559 20.7177 53.8301 21.0286 55.7606 23.8468L69.3905 42.2541L83.1206 23.947C84.8795 21.4495 86.7708 20.5007 89.9287 21.4206L82.835 30.8258L73.2239 43.3401C72.0795 44.7701 72.2367 45.7491 73.2898 47.1297L91.6422 71.513ZM0.131496 44.7166L1.73861 36.8101C6.11509 21.1632 24.0501 14.6613 36.4189 24.3294C43.6471 30.0157 45.4437 38.0595 45.0861 47.0699H4.34185C3.73017 63.2887 15.4035 73.0769 30.2856 68.0832C35.5058 66.3299 38.5807 62.2417 40.1199 57.128C40.9011 54.5652 42.1931 54.1643 44.6021 54.8968C43.3725 61.293 40.5977 66.6361 34.7335 69.9801C25.9723 74.9854 13.4655 73.3666 6.88741 66.4102C2.96814 62.3736 1.34936 57.2598 0.623035 51.7904C0.508388 50.8862 0.279781 50.0253 0.108154 49.159C0.123257 47.6789 0.131496 46.1994 0.131496 44.7193V44.7166ZM4.41599 43.6298H41.2354C40.9952 31.9022 33.6928 23.5722 23.7123 23.5014C12.7571 23.4156 4.89036 31.5473 4.4153 43.6298H4.41599Z" fill="#999D9E"/>
</g>
<defs>
<clipPath id="clip0_151_87">
<rect width="91.5341" height="91.5341" fill="white" transform="translate(0.108154 0.563477)"/>
</clipPath>
</defs>
</svg>
