<svg width="92" height="93" viewBox="0 0 92 93" fill="none" xmlns="http://www.w3.org/2000/svg">
<path fill-rule="evenodd" clip-rule="evenodd" d="M42.7844 13.0439H33.7835C28.8125 13.0439 24.7827 17.0737 24.7827 22.0448C24.7827 27.0158 28.8125 31.0456 33.7835 31.0456H42.7844V13.0439ZM42.7844 6.94165H48.8867H57.8875C66.229 6.94165 72.9903 13.7035 72.9903 22.0448C72.9903 26.9671 70.6361 31.3395 66.9912 34.0968C70.6361 36.8541 72.9903 41.2265 72.9903 46.1488C72.9903 54.49 66.229 61.2519 57.8875 61.2519C54.5149 61.2519 51.4004 60.1465 48.8867 58.2781V61.2519V70.2528C48.8867 78.594 42.1247 85.3559 33.7835 85.3559C25.4423 85.3559 18.6804 78.594 18.6804 70.2528C18.6804 65.3301 21.0352 60.9581 24.6797 58.2007C21.0352 55.4434 18.6804 51.0711 18.6804 46.1488C18.6804 41.2265 21.0352 36.8541 24.6798 34.0968C21.0352 31.3395 18.6804 26.9671 18.6804 22.0448C18.6804 13.7035 25.4423 6.94165 33.7835 6.94165H42.7844ZM48.8867 13.0439V31.0456H57.8875C62.8587 31.0456 66.8881 27.0158 66.8881 22.0448C66.8881 17.0737 62.8587 13.0439 57.8875 13.0439H48.8867ZM33.7835 55.1495H42.7844V46.172V46.1488V46.1256V37.148H33.7835C28.8125 37.148 24.7827 41.1778 24.7827 46.1488C24.7827 51.1079 28.7932 55.1304 33.7478 55.1496L33.7835 55.1495ZM24.7827 70.2528C24.7827 65.2935 28.7932 61.2712 33.7478 61.2519L33.7835 61.2519H42.7844V70.2528C42.7844 75.2237 38.7546 79.2536 33.7835 79.2536C28.8125 79.2536 24.7827 75.2237 24.7827 70.2528ZM48.8867 46.1309C48.8964 41.1681 52.9225 37.148 57.8875 37.148C62.8587 37.148 66.8881 41.1778 66.8881 46.1488C66.8881 51.1198 62.8587 55.1497 57.8875 55.1497C52.9225 55.1497 48.8964 51.1296 48.8867 46.1668V46.1309Z" fill="#fff"/>
</svg>
