<svg width="54" height="54" viewBox="0 0 54 54" fill="none" xmlns="http://www.w3.org/2000/svg">
<path d="M27 54C12.114 54 0 41.886 0 27C0 12.114 12.114 0 27 0C41.886 0 54 12.114 54 27C54 41.886 41.886 54 27 54ZM28.608 37.74C28.506 37.74 28.41 37.782 28.338 37.848C28.26 37.92 28.218 38.022 28.218 38.13V50.982C28.218 51.102 28.272 51.21 28.362 51.288C28.434 51.342 28.518 51.372 28.608 51.372C28.638 51.372 28.668 51.372 28.692 51.36C32.802 50.424 36.57 46.032 38.772 39.6C38.808 39.498 38.796 39.384 38.748 39.288C38.694 39.192 38.61 39.12 38.502 39.096C35.418 38.304 32.094 37.848 28.62 37.734C28.62 37.734 28.614 37.734 28.608 37.734V37.74ZM25.374 37.74C21.9 37.848 18.576 38.31 15.492 39.102C15.384 39.132 15.3 39.198 15.246 39.294C15.192 39.39 15.186 39.504 15.222 39.606C17.424 46.032 21.192 50.43 25.302 51.36C25.332 51.366 25.362 51.372 25.386 51.372C25.476 51.372 25.56 51.342 25.632 51.288C25.722 51.216 25.776 51.102 25.776 50.982V38.13C25.776 38.022 25.734 37.926 25.656 37.848C25.584 37.776 25.488 37.74 25.386 37.74C25.386 37.74 25.38 37.74 25.374 37.74ZM12.45 40.05C12.408 40.05 12.36 40.056 12.318 40.074C10.776 40.632 9.366 41.28 8.13 41.994C8.034 42.054 7.962 42.15 7.944 42.264C7.926 42.378 7.956 42.492 8.028 42.582C10.392 45.456 13.428 47.79 16.812 49.338C16.866 49.362 16.92 49.374 16.974 49.374C17.094 49.374 17.208 49.32 17.28 49.224C17.388 49.08 17.388 48.882 17.28 48.738C15.444 46.482 13.95 43.65 12.834 40.314C12.798 40.212 12.726 40.134 12.636 40.086C12.582 40.062 12.522 40.05 12.468 40.05H12.45ZM41.538 40.05C41.478 40.05 41.424 40.062 41.37 40.086C41.274 40.134 41.202 40.212 41.172 40.314C40.056 43.644 38.562 46.482 36.726 48.738C36.612 48.876 36.612 49.08 36.726 49.224C36.804 49.32 36.918 49.374 37.032 49.374C37.086 49.374 37.14 49.362 37.194 49.338C40.578 47.79 43.614 45.45 45.972 42.582C46.044 42.492 46.074 42.378 46.056 42.264C46.038 42.15 45.966 42.054 45.87 41.994C44.622 41.268 43.212 40.62 41.682 40.068C41.64 40.05 41.592 40.044 41.55 40.044L41.538 40.05ZM43.584 28.224C43.374 28.224 43.2 28.392 43.194 28.602C43.092 31.602 42.708 34.518 42.042 37.266C41.994 37.458 42.102 37.656 42.288 37.728C44.166 38.394 45.864 39.174 47.34 40.05C47.4 40.086 47.472 40.104 47.538 40.104C47.67 40.104 47.796 40.038 47.868 39.918C49.974 36.528 51.222 32.628 51.486 28.644C51.492 28.536 51.456 28.428 51.384 28.35C51.312 28.272 51.21 28.224 51.102 28.224H43.578H43.584ZM2.886 28.224C2.778 28.224 2.676 28.266 2.604 28.35C2.532 28.428 2.49 28.536 2.502 28.644C2.766 32.628 4.014 36.528 6.12 39.918C6.192 40.038 6.318 40.104 6.45 40.104C6.516 40.104 6.588 40.086 6.648 40.05C8.124 39.174 9.828 38.394 11.7 37.728C11.886 37.662 11.994 37.464 11.946 37.272C11.286 34.524 10.896 31.608 10.794 28.608C10.788 28.398 10.614 28.23 10.404 28.23H2.886V28.224ZM13.632 28.224C13.524 28.224 13.422 28.266 13.35 28.344C13.278 28.422 13.236 28.524 13.242 28.632C13.344 31.344 13.71 33.99 14.316 36.498C14.34 36.6 14.406 36.69 14.496 36.738C14.556 36.774 14.628 36.792 14.694 36.792C14.724 36.792 14.76 36.792 14.79 36.78C18.12 35.91 21.69 35.418 25.398 35.304C25.608 35.298 25.776 35.124 25.776 34.914V28.614C25.776 28.398 25.602 28.224 25.386 28.224H13.632ZM28.608 28.224C28.392 28.224 28.218 28.398 28.218 28.614V34.914C28.218 35.124 28.386 35.298 28.596 35.304C32.304 35.418 35.874 35.91 39.204 36.78C39.234 36.786 39.27 36.792 39.3 36.792C39.372 36.792 39.438 36.774 39.498 36.738C39.588 36.684 39.654 36.594 39.678 36.498C40.284 33.99 40.644 31.344 40.752 28.632C40.752 28.524 40.716 28.422 40.644 28.344C40.572 28.266 40.47 28.224 40.362 28.224H28.608ZM47.55 13.908C47.484 13.908 47.412 13.926 47.352 13.962C45.876 14.838 44.178 15.624 42.3 16.284C42.114 16.35 42.006 16.548 42.054 16.74C42.714 19.488 43.104 22.404 43.206 25.404C43.212 25.614 43.386 25.782 43.596 25.782H51.12C51.228 25.782 51.33 25.74 51.402 25.656C51.474 25.578 51.516 25.47 51.504 25.362C51.24 21.378 49.992 17.478 47.886 14.088C47.814 13.968 47.688 13.902 47.556 13.902L47.55 13.908ZM39.3 17.214C39.27 17.214 39.234 17.214 39.204 17.226C35.88 18.09 32.31 18.588 28.596 18.702C28.386 18.708 28.218 18.882 28.218 19.092V25.392C28.218 25.608 28.392 25.782 28.608 25.782H40.362C40.47 25.782 40.572 25.74 40.644 25.662C40.716 25.584 40.758 25.482 40.752 25.374C40.65 22.662 40.284 20.016 39.678 17.508C39.654 17.406 39.588 17.316 39.498 17.268C39.438 17.232 39.366 17.214 39.3 17.214ZM14.694 17.214C14.622 17.214 14.556 17.232 14.496 17.268C14.406 17.322 14.34 17.412 14.316 17.508C13.71 20.016 13.35 22.662 13.242 25.374C13.242 25.482 13.278 25.584 13.35 25.662C13.422 25.74 13.524 25.782 13.632 25.782H25.386C25.602 25.782 25.776 25.608 25.776 25.392V19.092C25.776 18.882 25.608 18.708 25.398 18.702C21.69 18.588 18.12 18.096 14.79 17.226C14.76 17.22 14.724 17.214 14.694 17.214ZM6.444 13.908C6.312 13.908 6.186 13.974 6.114 14.094C4.008 17.484 2.76 21.384 2.496 25.368C2.49 25.476 2.526 25.584 2.598 25.662C2.67 25.74 2.778 25.788 2.88 25.788H10.404C10.614 25.788 10.788 25.62 10.794 25.41C10.896 22.41 11.28 19.494 11.946 16.746C11.994 16.554 11.886 16.356 11.7 16.29C9.822 15.624 8.118 14.844 6.648 13.968C6.588 13.932 6.516 13.914 6.45 13.914L6.444 13.908ZM28.608 2.628C28.518 2.628 28.434 2.658 28.362 2.712C28.272 2.784 28.218 2.898 28.218 3.018V15.87C28.218 15.978 28.26 16.074 28.338 16.152C28.41 16.224 28.506 16.26 28.608 16.26C28.608 16.26 28.614 16.26 28.62 16.26C32.094 16.152 35.424 15.696 38.502 14.898C38.61 14.868 38.694 14.802 38.748 14.706C38.802 14.61 38.808 14.496 38.772 14.394C36.57 7.968 32.802 3.57 28.692 2.634C28.662 2.628 28.632 2.622 28.608 2.622V2.628ZM25.386 2.628C25.386 2.628 25.326 2.628 25.302 2.64C21.192 3.576 17.424 7.968 15.222 14.394C15.186 14.496 15.198 14.61 15.246 14.706C15.3 14.802 15.384 14.874 15.492 14.898C18.576 15.69 21.9 16.152 25.374 16.26C25.374 16.26 25.38 16.26 25.386 16.26C25.488 16.26 25.584 16.218 25.656 16.152C25.734 16.08 25.776 15.978 25.776 15.87V3.018C25.776 2.898 25.722 2.79 25.632 2.712C25.56 2.658 25.476 2.628 25.386 2.628ZM37.026 4.626C36.906 4.626 36.792 4.68 36.72 4.776C36.612 4.92 36.612 5.118 36.72 5.262C38.556 7.518 40.05 10.356 41.166 13.686C41.202 13.788 41.274 13.866 41.364 13.914C41.418 13.938 41.478 13.95 41.532 13.95C41.574 13.95 41.622 13.944 41.664 13.926C43.194 13.374 44.604 12.726 45.852 12C45.948 11.94 46.02 11.844 46.038 11.73C46.056 11.616 46.026 11.502 45.954 11.412C43.59 8.538 40.554 6.204 37.176 4.656C37.122 4.632 37.068 4.62 37.014 4.62L37.026 4.626ZM16.968 4.626C16.914 4.626 16.86 4.638 16.806 4.662C13.422 6.21 10.386 8.55 8.022 11.418C7.95 11.508 7.92 11.622 7.938 11.736C7.956 11.85 8.028 11.946 8.124 12.006C9.36 12.72 10.77 13.368 12.312 13.926C12.354 13.944 12.402 13.95 12.444 13.95C12.504 13.95 12.558 13.938 12.612 13.914C12.708 13.866 12.78 13.788 12.81 13.686C13.926 10.356 15.42 7.524 17.256 5.262C17.37 5.124 17.37 4.92 17.256 4.776C17.178 4.68 17.064 4.626 16.95 4.626H16.968Z" fill="white"/>
</svg>
