<svg width="32" height="32" viewBox="0 0 32 32" fill="none" xmlns="http://www.w3.org/2000/svg">
<path d="M16.0001 2.66895C12.3793 2.66895 11.9254 2.69197 10.5034 2.75049C9.08436 2.8153 8.11711 3.03735 7.26915 3.36708C6.39239 3.70768 5.64585 4.16557 4.90469 4.90678C4.1635 5.64799 3.70987 6.39045 3.36921 7.26714C3.03954 8.11519 2.81323 9.08639 2.7485 10.5055C2.68347 11.9274 2.66675 12.3814 2.66675 16.0021C2.66675 19.623 2.68347 20.0767 2.7485 21.4987C2.81331 22.9178 3.03954 23.885 3.36921 24.7331C3.70987 25.6098 4.1635 26.3522 4.90469 27.0934C5.64585 27.8346 6.39239 28.2921 7.26915 28.6329C8.11711 28.9624 9.08436 29.1889 10.5034 29.2537C11.9254 29.3185 12.3793 29.3311 16.0001 29.3311C19.6208 29.3311 20.0747 29.3102 21.4967 29.2537C22.9158 29.1889 23.8871 28.9624 24.7351 28.6329C25.6118 28.2921 26.3543 27.8346 27.0955 27.0934C27.8367 26.3522 28.2903 25.6098 28.6309 24.7331C28.9606 23.885 29.1869 22.9178 29.2517 21.4987C29.3167 20.0767 29.3334 19.623 29.3334 16.0021C29.3334 12.3814 29.3167 11.9274 29.2517 10.5055C29.1868 9.08639 28.9606 8.11519 28.6309 7.26714C28.2903 6.39045 27.8367 5.64799 27.0955 4.90678C26.3543 4.16557 25.6118 3.70768 24.7351 3.36708C23.8871 3.03735 22.9158 2.8153 21.4967 2.75049C20.0748 2.68567 19.6208 2.66895 16.0001 2.66895ZM16.0001 5.07008C19.5599 5.07008 19.9806 5.09096 21.3865 5.14744C22.6863 5.20598 23.3955 5.42636 23.8653 5.60889C24.4876 5.8508 24.9302 6.13892 25.3967 6.60539C25.8632 7.07186 26.1513 7.51449 26.3931 8.13673C26.5756 8.60654 26.7952 9.31576 26.8545 10.6154C26.9185 12.0213 26.9321 12.4422 26.9321 16.0019C26.9321 19.5618 26.9175 19.9827 26.8545 21.3883C26.7952 22.6882 26.5756 23.3932 26.3931 23.8631C26.1513 24.4853 25.8632 24.9317 25.3967 25.3984C24.9302 25.8648 24.4876 26.153 23.8653 26.3949C23.3955 26.5768 22.6863 26.7932 21.3865 26.8524C19.9808 26.9172 19.5602 26.9297 16.0001 26.9297C12.44 26.9297 12.0194 26.9088 10.6137 26.8524C9.31387 26.7938 8.60876 26.5774 8.13896 26.3949C7.51664 26.153 7.06999 25.8648 6.6035 25.3984C6.13704 24.9317 5.84896 24.4853 5.60709 23.8631C5.42455 23.3932 5.20905 22.6882 5.14972 21.3883C5.08573 19.9827 5.07214 19.5618 5.07214 16.0019C5.07214 12.4422 5.08678 12.0213 5.14972 10.6154C5.2091 9.31576 5.42455 8.60654 5.60709 8.13673C5.84896 7.51449 6.13704 7.07186 6.6035 6.60539C7.06999 6.13892 7.51664 5.8508 8.13896 5.60889C8.60876 5.42699 9.31387 5.20682 10.6137 5.14744C12.0196 5.08262 12.4403 5.07008 16.0001 5.07008ZM23.118 7.28345C22.2345 7.28345 21.5171 8.00061 21.5171 8.8842C21.5171 9.7678 22.2345 10.485 23.118 10.485C24.0016 10.485 24.7188 9.7678 24.7188 8.8842C24.7188 8.00061 24.0016 7.28345 23.118 7.28345ZM16.0001 9.15372C12.2191 9.15372 9.15581 12.2212 9.15581 16.0021C9.15581 19.7832 12.2191 22.8463 16.0001 22.8463C19.7811 22.8463 22.8484 19.7832 22.8484 16.0021C22.8484 12.2212 19.7811 9.15372 16.0001 9.15372ZM16.0001 11.559C18.4544 11.559 20.4431 13.5478 20.4431 16.0021C20.4431 18.4565 18.4544 20.4451 16.0001 20.4451C13.5457 20.4451 11.557 18.4565 11.557 16.0021C11.557 13.5478 13.5457 11.559 16.0001 11.559Z" fill="white"/>
</svg>
