<svg width="93" height="93" viewBox="0 0 93 93" fill="none" xmlns="http://www.w3.org/2000/svg">
<path fill-rule="evenodd" clip-rule="evenodd" d="M0.90332 0.563477H92.4374V92.0976H0.90332V0.563477ZM70.876 77.2982C66.6335 77.2982 64.2347 75.0854 62.391 72.0749L55.401 76.1358C57.9261 81.1252 63.0869 84.9318 71.0751 84.9318C79.2449 84.9318 85.3283 80.6893 85.3283 72.9452C85.3283 65.762 81.202 62.567 73.8938 59.433L71.7434 58.5119C68.053 56.9137 66.4548 55.869 66.4548 53.2886C66.4548 51.2008 68.0516 49.6026 70.5709 49.6026C73.0409 49.6026 74.6318 50.6443 76.1066 53.2886L82.8045 48.988C79.9713 44.0044 76.0397 42.1011 70.5709 42.1011C62.8893 42.1011 57.9741 47.012 57.9741 53.463C57.9741 60.4661 62.0975 63.7787 68.3044 66.423L70.4547 67.3456C74.3776 69.0615 76.7168 70.1062 76.7168 73.0556C76.7168 75.5169 74.4401 77.2982 70.876 77.2982ZM37.5417 77.2444C34.5864 77.2444 33.3572 75.2176 32.006 72.8203L25.0044 77.0592C27.0327 81.3518 31.0209 84.9158 37.9078 84.9158C45.5298 84.9158 50.7516 80.8622 50.7516 71.9558V42.5922H42.1503V71.8395C42.1503 76.1387 40.3676 77.2444 37.5417 77.2444Z" fill="#999D9E"/>
</svg>
