<svg width="93" height="93" viewBox="0 0 93 93" fill="none" xmlns="http://www.w3.org/2000/svg">
<g clip-path="url(#clip0_151_135)">
<path fill-rule="evenodd" clip-rule="evenodd" d="M89.9509 20.8945C89.9832 21.0145 89.9997 21.1382 90 21.2625V40.5808C90 40.8287 89.9349 41.0723 89.8112 41.2868C89.6875 41.5014 89.5097 41.6793 89.2956 41.8027L73.1603 51.1379V69.6409C73.1603 70.1445 72.894 70.6093 72.4595 70.8628L38.7784 90.3466C38.7013 90.3906 38.6172 90.4188 38.5331 90.4487C38.5016 90.4593 38.4718 90.4786 38.4385 90.4874C38.203 90.5497 37.9555 90.5497 37.7201 90.4874C37.6816 90.4769 37.6465 90.4557 37.6097 90.4417C37.5326 90.4135 37.452 90.3888 37.3784 90.3466L3.70435 70.8628C3.49043 70.7393 3.31269 70.5614 3.18903 70.3468C3.06537 70.1323 3.00017 69.8888 3 69.6409V11.6861C3 11.5594 3.01752 11.4361 3.04906 11.3164C3.05957 11.2759 3.0841 11.2389 3.09812 11.1984C3.1244 11.1245 3.14893 11.0488 3.18748 10.9801C3.21376 10.9343 3.25231 10.8974 3.28384 10.8551C3.32414 10.7988 3.36094 10.7407 3.40825 10.6914C3.44854 10.6509 3.50111 10.6209 3.54666 10.5857C3.59747 10.5435 3.64303 10.4977 3.70085 10.4642L20.5405 0.722346C20.7537 0.599064 20.9954 0.53418 21.2414 0.53418C21.4873 0.53418 21.729 0.599064 21.9422 0.722346L38.7801 10.4642H38.7836C38.8397 10.4994 38.887 10.5435 38.9378 10.584C38.9834 10.6192 39.0342 10.6509 39.0745 10.6896C39.1236 10.7407 39.1586 10.7988 39.2006 10.8551C39.2304 10.8974 39.2707 10.9343 39.2953 10.9801C39.3356 11.0505 39.3583 11.1245 39.3864 11.1984C39.4004 11.2389 39.4249 11.2759 39.4354 11.3182C39.4677 11.4381 39.4842 11.5619 39.4845 11.6861V47.8841L53.5155 39.7656V21.2608C53.5155 21.1375 53.533 21.0125 53.5646 20.8945C53.5768 20.8523 53.5996 20.8153 53.6136 20.7748C53.6417 20.7009 53.6662 20.6252 53.7047 20.5565C53.731 20.5107 53.7696 20.4737 53.7994 20.4315C53.8414 20.3751 53.8764 20.317 53.9255 20.2677C53.9658 20.2272 54.0166 20.1973 54.0622 20.1621C54.1147 20.1198 54.1603 20.0741 54.2164 20.0406L71.0578 10.2987C71.2709 10.1753 71.5126 10.1103 71.7586 10.1103C72.0046 10.1103 72.2463 10.1753 72.4595 10.2987L89.2974 20.0406C89.357 20.0758 89.4025 20.1198 89.4551 20.1603C89.4989 20.1955 89.5497 20.2272 89.59 20.266C89.6391 20.317 89.6741 20.3751 89.7162 20.4315C89.7477 20.4737 89.7862 20.5107 89.8108 20.5565C89.8511 20.6252 89.8738 20.7009 89.9019 20.7748C89.9176 20.8153 89.9404 20.8523 89.9509 20.8945ZM87.1931 39.7656V23.7011L81.3007 27.1098L73.1603 31.8196V47.8841L87.1948 39.7656H87.1931ZM70.3552 68.8257V52.7506L62.348 57.346L39.4827 70.4596V86.6861L70.3552 68.8257ZM5.8069 14.1247V68.8257L36.6758 86.6844V70.4614L20.5493 61.29L20.544 61.2865L20.537 61.2829C20.4827 61.2512 20.4371 61.2055 20.3863 61.1667C20.3425 61.1315 20.2917 61.1033 20.2532 61.0646L20.2497 61.0593C20.2041 61.0153 20.1726 60.9607 20.134 60.9114C20.099 60.8639 20.0569 60.8234 20.0289 60.7741L20.0271 60.7688C19.9956 60.716 19.9763 60.6526 19.9536 60.5927C19.9308 60.5399 19.901 60.4906 19.887 60.4343C19.8695 60.3674 19.866 60.2952 19.8589 60.2265C19.8519 60.1737 19.8379 60.1209 19.8379 60.0681V60.0645V22.2432L11.6993 17.5316L5.8069 14.1247ZM21.2431 3.57114L7.21386 11.6861L21.2396 19.8011L35.2671 11.6844L21.2396 3.57114H21.2431ZM28.539 54.2155L36.6776 49.5075V14.1247L30.7852 17.5334L22.6448 22.2432V57.626L28.539 54.2155ZM71.7586 13.1475L57.7311 21.2625L71.7586 29.3775L85.7844 21.2608L71.7586 13.1475ZM70.3552 31.8196L62.2148 27.1098L56.3224 23.7011V39.7656L64.461 44.4737L70.3552 47.8841V31.8196ZM38.0775 68.0211L58.6527 56.2174L68.9377 50.3191L54.9207 42.2094L38.7819 51.5463L24.0728 60.0557L38.0775 68.0211Z" fill="#fff"/>
</g>
<defs>
<clipPath id="clip0_151_135">
<rect width="91.5341" height="91.5341" fill="white" transform="translate(0.97168 0.631592)"/>
</clipPath>
</defs>
</svg>
