<svg width="32" height="32" viewBox="0 0 32 32" fill="none" xmlns="http://www.w3.org/2000/svg">
<path fill-rule="evenodd" clip-rule="evenodd" d="M28.4444 32H3.55556C1.59188 32 0 30.4081 0 28.4444V3.55556C0 1.59188 1.59188 0 3.55556 0H28.4444C30.4081 0 32 1.59188 32 3.55556V28.4444C32 30.4081 30.4081 32 28.4444 32ZM22.807 27.5554H27.5556V17.8004C27.5556 13.673 25.2159 11.6773 21.9478 11.6773C18.6783 11.6773 17.3023 14.2234 17.3023 14.2234V12.148H12.7259V27.5554H17.3023V19.4675C17.3023 17.3004 18.2998 16.0108 20.2092 16.0108C21.9644 16.0108 22.807 17.25 22.807 19.4675V27.5554ZM4.44446 7.28745C4.44446 8.85752 5.70759 10.1306 7.26639 10.1306C8.82519 10.1306 10.0876 8.85752 10.0876 7.28745C10.0876 5.71738 8.82519 4.44434 7.26639 4.44434C5.70759 4.44434 4.44446 5.71738 4.44446 7.28745ZM9.6753 27.5554H4.90337V12.148H9.6753V27.5554Z" fill="white"/>
</svg>
