<svg width="92" height="93" viewBox="0 0 92 93" fill="none" xmlns="http://www.w3.org/2000/svg">
<g clip-path="url(#clip0_151_140)">
<path d="M37.2779 38.3923C35.834 46.2507 33.9404 51.9551 31.5735 55.5055C29.7319 58.2512 27.7153 59.6241 25.514 59.6241C24.9294 59.6241 24.2074 59.4473 23.3506 59.0962V57.2027C23.7695 57.2642 24.2595 57.2969 24.8252 57.2969C25.8501 57.2969 26.6762 57.0128 27.3105 56.4471C28.0632 55.756 28.4396 54.9796 28.4396 54.1204C28.4396 53.5334 28.1461 52.3262 27.5614 50.4989L23.6796 38.38H27.159L29.9521 47.4455C30.5793 49.5024 30.8421 50.9486 30.7355 51.7534C32.2622 47.6586 33.3392 43.2086 33.931 38.38H37.2921M21.9067 54.0494H18.3563C18.2315 48.0609 17.8852 42.4039 17.3219 37.1255H17.2907L11.894 54.0494H9.19561L3.82258 37.1255H3.79086C3.39321 42.1908 3.14231 47.8479 3.03816 54.0494H-0.20459C0.00417726 46.4987 0.526805 39.4215 1.36235 32.8176H5.76492L10.8776 48.416H10.9091L16.0454 32.8176H20.2586C21.1794 40.5576 21.7238 47.6349 21.8895 54.0494" fill="#999D9E"/>
<path d="M84.6174 54.0618H74.5577V32.8301H77.9425V51.4581H84.6174V54.0618ZM59.2908 49.8249C58.4339 48.4402 58.0031 46.2271 58.0031 43.1501C58.0031 37.8007 59.6245 35.126 62.8554 35.126C64.5502 35.126 65.7905 35.7651 66.5952 37.0433C67.4521 38.4279 67.8829 40.6411 67.8829 43.6471C67.8829 49.0438 66.2615 51.7422 63.0306 51.7422C61.3358 51.7422 60.0955 51.1031 59.2908 49.8226M71.9067 54.5802L68.0249 52.6558C68.3705 52.3718 68.7019 52.0641 68.9977 51.7067C70.6499 49.7586 71.483 46.878 71.483 43.0672C71.483 36.0373 68.7374 32.5342 63.2223 32.5342C60.524 32.5342 58.4173 33.4242 56.9262 35.2089C55.2716 37.1592 54.4408 40.0375 54.4408 43.8246C54.4408 47.5645 55.1722 50.2865 56.6374 52.038C57.9724 53.6097 59.9985 54.3979 62.6968 54.3979C63.7052 54.3979 64.6283 54.2734 65.4662 54.0239L70.5315 56.9827L71.9138 54.592M52.978 48.2012C52.978 50.0024 52.3177 51.4913 51.0016 52.6274C49.6856 53.7801 47.9246 54.3553 45.6996 54.3553C43.6285 54.3553 41.6284 53.6902 39.6638 52.3718L40.5727 50.5469C42.2462 51.3848 43.7681 51.8037 45.1173 51.8037C46.3931 51.8037 47.392 51.5197 48.1234 50.9563C48.8429 50.3906 49.2761 49.6001 49.2761 48.5988C49.2761 47.3372 48.398 46.2603 46.7908 45.3561C45.3043 44.5395 42.3409 42.8234 42.3409 42.8234C40.7313 41.647 39.9266 40.3854 39.9266 38.3025C39.9266 36.5817 40.5278 35.2018 41.7302 34.1366C42.935 33.0762 44.4759 32.546 46.3931 32.546C48.3601 32.546 50.1566 33.0715 51.7662 34.1201L50.9472 35.9426C49.5696 35.358 48.2015 35.0621 46.876 35.0621C45.7895 35.0621 44.9516 35.3248 44.367 35.8503C43.78 36.371 43.4178 37.0433 43.4178 37.8622C43.4178 39.1191 44.3149 40.2103 45.9742 41.1287C47.4772 41.9476 50.5188 43.685 50.5188 43.685C52.1733 44.859 53.0041 46.123 53.0041 48.1822" fill="#999D9E"/>
<path d="M86.5109 54.0619H87.0718V51.9009H87.8056V51.4606H85.7463V51.9009H86.5085L86.5109 54.0619ZM90.7951 54.0619H91.3253V51.4583H90.53L89.8814 53.2311L89.1761 51.4583H88.4092V54.0619H88.911V52.0808H88.9394L89.6779 54.0619H90.059L90.7975 52.0808V54.0619" fill="#999D9E"/>
</g>
<defs>
<clipPath id="clip0_151_140">
<rect width="91.53" height="91.53" fill="white" transform="translate(0.041748 0.633545)"/>
</clipPath>
</defs>
</svg>
