<svg width="93" height="93" viewBox="0 0 93 93" fill="none" xmlns="http://www.w3.org/2000/svg">
<g clip-path="url(#clip0_151_112)">
<path d="M43.5398 0.703076C43.3432 0.720952 42.7175 0.783518 42.1544 0.828208C29.1675 1.99909 17.0029 9.00648 9.29833 19.7768C5.00809 25.7652 2.26412 32.5581 1.22731 39.7532C0.860852 42.2648 0.816162 43.0066 0.816162 46.412C0.816162 49.8174 0.860852 50.5593 1.22731 53.0708C3.71207 70.2407 15.9303 84.6667 32.5014 90.0116C35.4688 90.968 38.5971 91.6204 42.1544 92.0137C43.5398 92.1657 49.5283 92.1657 50.9137 92.0137C57.0541 91.3344 62.256 89.815 67.3864 87.1961C68.1729 86.7939 68.3249 86.6867 68.2176 86.5973C68.1461 86.5437 64.7944 82.0478 60.7723 76.6135L53.461 66.737L44.2995 53.1781C39.2585 45.7238 35.1113 39.6281 35.0755 39.6281C35.0398 39.6191 35.004 45.6434 34.9861 52.9993C34.9593 65.879 34.9504 66.3974 34.7895 66.7013C34.5571 67.1393 34.3784 67.318 34.003 67.5146C33.7169 67.6577 33.4667 67.6845 32.117 67.6845H30.5708L30.1596 67.4253C29.8915 67.2554 29.6948 67.032 29.5608 66.7728L29.3731 66.3706L29.391 48.4499L29.4178 30.5203L29.6948 30.1717C29.8379 29.984 30.1417 29.7426 30.3563 29.6265C30.7227 29.4477 30.8657 29.4298 32.412 29.4298C34.2354 29.4298 34.5392 29.5013 35.013 30.0197C35.147 30.1627 40.1076 37.6349 46.0425 46.6355C51.9773 55.636 60.093 67.9258 64.0793 73.9589L71.3191 84.9259L71.6856 84.6846C74.9301 82.5752 78.3623 79.572 81.0794 76.4437C86.8623 69.8028 90.5895 61.7049 91.8408 53.0708C92.2072 50.5593 92.2519 49.8174 92.2519 46.412C92.2519 43.0066 92.2072 42.2648 91.8408 39.7532C89.356 22.5833 77.1378 8.15737 60.5667 2.81244C57.644 1.86502 54.5336 1.21254 51.0477 0.81927C50.1897 0.72989 44.2817 0.631572 43.5398 0.703076ZM62.256 28.3573C62.685 28.5718 63.0336 28.9829 63.1587 29.4119C63.2302 29.6443 63.2481 34.6139 63.2302 45.8132L63.2034 61.8837L60.3701 57.5398L57.5278 53.196V41.514C57.5278 33.9614 57.5635 29.7158 57.6172 29.5103C57.7602 29.0097 58.073 28.6165 58.502 28.3841C58.8685 28.1964 59.0026 28.1785 60.4058 28.1785C61.7287 28.1785 61.961 28.1964 62.256 28.3573Z" fill="#fff"/>
<path d="M70.8723 85.1225C70.5595 85.3191 70.4612 85.4532 70.7382 85.3013C70.9349 85.1851 71.2566 84.9438 71.203 84.9348C71.1762 84.9348 71.0243 85.0242 70.8723 85.1225ZM70.2556 85.5247C70.0947 85.6499 70.0947 85.6588 70.2913 85.5605C70.3986 85.5068 70.488 85.4443 70.488 85.4264C70.488 85.3549 70.4433 85.3728 70.2556 85.5247ZM69.8087 85.7929C69.6478 85.918 69.6478 85.9269 69.8444 85.8286C69.9517 85.775 70.0411 85.7124 70.0411 85.6945C70.0411 85.623 69.9964 85.6409 69.8087 85.7929ZM69.3618 86.061C69.2009 86.1861 69.2009 86.1951 69.3975 86.0968C69.5048 86.0431 69.5942 85.9806 69.5942 85.9627C69.5942 85.8912 69.5495 85.9091 69.3618 86.061ZM68.6825 86.4185C68.3429 86.5973 68.3607 86.6688 68.7004 86.499C68.8523 86.4185 68.9685 86.3381 68.9685 86.3202C68.9685 86.2576 68.9596 86.2666 68.6825 86.4185Z" fill="#fff"/>
</g>
<defs>
<clipPath id="clip0_151_112">
<rect width="91.5341" height="91.5341" fill="white" transform="translate(0.76709 0.631592)"/>
</clipPath>
</defs>
</svg>
