<svg width="92" height="93" viewBox="0 0 92 93" fill="none" xmlns="http://www.w3.org/2000/svg">
<g clip-path="url(#clip0_151_73)">
<path d="M45.2816 74.0149C44.9795 74.0149 44.6795 73.9356 44.4146 73.7831L41.655 72.1493C41.2428 71.9188 41.4439 71.8373 41.5799 71.7903C42.1294 71.5979 42.241 71.5544 42.8276 71.2213C42.8892 71.1861 42.9699 71.1985 43.0331 71.2358L45.1531 72.4938C45.2297 72.5352 45.3383 72.5352 45.4093 72.4938L53.6756 67.7223C53.7522 67.6789 53.8018 67.5899 53.8018 67.4988V57.96C53.8018 57.8648 53.7522 57.78 53.674 57.7324L45.4109 52.965C45.3344 52.9195 45.233 52.9195 45.1564 52.965L36.8951 57.7324C36.815 57.7779 36.7641 57.8669 36.7641 57.9579V67.4968C36.7641 67.5878 36.8137 67.6747 36.8924 67.7182L39.156 69.0259C40.3851 69.6404 41.1362 68.9162 41.1362 68.1879V58.7732C41.1362 58.6387 41.2418 58.5352 41.3763 58.5352H42.4233C42.5536 58.5352 42.6612 58.6387 42.6612 58.7732V68.192C42.6612 69.8308 41.7673 70.7723 40.2134 70.7723C39.7354 70.7723 39.3588 70.7723 38.3077 70.255L36.1392 69.0052C35.6033 68.6948 35.2722 68.1155 35.2722 67.4968V57.9579C35.2722 57.3372 35.6033 56.7578 36.1392 56.4515L44.4138 51.678C44.9373 51.3821 45.6326 51.3821 46.1519 51.678L54.4162 56.4536C54.95 56.7619 55.2832 57.3392 55.2832 57.96V67.4988C55.2832 68.1175 54.95 68.6948 54.4162 69.0052L46.1519 73.7788C45.8871 73.9319 45.587 74.0105 45.2808 74.0105" fill="#fff"/>
<path d="M47.8352 67.442C44.2183 67.442 43.46 65.7817 43.46 64.3891C43.46 64.2567 43.5667 64.1512 43.6994 64.1512H44.7671C44.885 64.1512 44.9843 64.237 45.0029 64.3535C45.1643 65.4415 45.6444 65.9902 47.8315 65.9902C49.5737 65.9902 50.3145 65.5967 50.3145 64.6728C50.3145 64.141 50.1034 63.7458 47.397 63.481C45.1333 63.2575 43.7345 62.7588 43.7345 60.9483C43.7345 59.2806 45.1416 58.2873 47.4984 58.2873C50.1448 58.2873 51.4567 59.2061 51.6222 61.18C51.6284 61.2483 51.6036 61.3145 51.5581 61.3642C51.5126 61.4118 51.4484 61.4408 51.3822 61.4408H50.3083C50.1966 61.4408 50.0993 61.3621 50.0765 61.2545C49.8179 60.1103 49.193 59.744 47.4942 59.744C45.5927 59.744 45.3713 60.4062 45.3713 60.9028C45.3713 61.5049 45.632 61.6808 48.1977 62.0201C50.7387 62.3574 51.945 62.8333 51.945 64.619C51.945 66.4192 50.4428 67.4517 47.8232 67.4517M57.8918 57.3355H58.1691C58.3967 57.3355 58.4401 57.1762 58.4401 57.0831C58.4401 56.8389 58.2725 56.8389 58.1794 56.8389H57.8939L57.8918 57.3355ZM57.5545 56.5534H58.1691C58.3801 56.5534 58.794 56.5534 58.794 57.0252C58.794 57.3542 58.5829 57.4224 58.4567 57.4638C58.7029 57.4804 58.7195 57.6418 58.7526 57.8694C58.7691 58.0121 58.796 58.2584 58.8457 58.3411H58.467C58.4567 58.2584 58.3987 57.8032 58.3987 57.7783C58.3739 57.6769 58.3387 57.6273 58.2125 57.6273H57.9001V58.3432H57.5545V56.5534ZM56.8158 57.4431C56.8158 58.1839 57.4138 58.7839 58.1484 58.7839C58.8891 58.7839 59.4871 58.1715 59.4871 57.4431C59.4871 56.7003 58.8809 56.1106 58.1463 56.1106C57.4221 56.1106 56.8138 56.692 56.8138 57.4411M59.7437 57.4473C59.7437 58.3246 59.0257 59.0405 58.1504 59.0405C57.2814 59.0405 56.5572 58.3329 56.5572 57.4473C56.5572 56.5451 57.2979 55.854 58.1504 55.854C59.0091 55.854 59.7416 56.5472 59.7416 57.4473" fill="#fff"/>
<path fill-rule="evenodd" clip-rule="evenodd" d="M19.6839 36.6914C19.6839 36.3106 19.4832 35.9609 19.1546 35.7716L10.3904 30.7291C10.2425 30.6421 10.0768 30.5966 9.90874 30.5904H9.81811C9.65009 30.5966 9.48435 30.6421 9.33392 30.7291L0.57016 35.7716C0.243645 35.962 0.0400391 36.3117 0.0400391 36.6924L0.0592823 50.2744C0.0592823 50.4627 0.156533 50.6386 0.322067 50.7317C0.483462 50.831 0.686241 50.831 0.847636 50.7317L6.05781 47.748C6.3868 47.5522 6.58751 47.2063 6.58751 46.8293V40.4842C6.58751 40.1055 6.78822 39.7558 7.11619 39.5675L9.33434 38.29C9.49904 38.1948 9.67989 38.1476 9.86404 38.1476C10.0453 38.1476 10.2303 38.1944 10.3904 38.2898L12.6076 39.5669C12.9357 39.7552 13.1373 40.1049 13.1373 40.4835V46.8282C13.1373 47.2048 13.3407 47.5524 13.668 47.7469L18.8749 50.7286C19.0383 50.8259 19.2417 50.8259 19.4046 50.7286C19.5651 50.6355 19.6669 50.4596 19.6669 50.2713L19.6839 36.6914ZM61.04 43.763C61.04 43.8575 60.9897 43.945 60.9076 43.9918L57.8973 45.727C57.8156 45.774 57.7146 45.774 57.6331 45.727L54.6225 43.9918C54.5397 43.9448 54.49 43.8573 54.49 43.763V40.2876C54.49 40.1928 54.5397 40.1055 54.6204 40.0579L57.629 38.3198C57.7117 38.2722 57.8131 38.2722 57.8959 38.3198L60.9065 40.0579C60.9893 40.1055 61.039 40.1928 61.039 40.2876L61.04 43.763ZM61.8532 18.0221C61.6889 17.9306 61.489 17.9331 61.3268 18.0277C61.1654 18.1228 61.0656 18.2967 61.0656 18.4849V31.9346C61.0656 32.067 60.9953 32.1891 60.8807 32.2553C60.7669 32.3215 60.6251 32.3215 60.5103 32.2553L58.3149 30.9908C57.988 30.8017 57.5853 30.8017 57.2571 30.9908L48.4901 36.0505C48.1625 36.2388 47.9604 36.5885 47.9604 36.9651V47.0875C47.9604 47.4662 48.1625 47.8138 48.4901 48.0041L57.2571 53.0674C57.5845 53.2557 57.9876 53.2557 58.3159 53.0674L67.083 48.0021C67.4099 47.8117 67.6127 47.4641 67.6127 47.0854V21.8581C67.6127 21.4741 67.4037 21.1209 67.0685 20.9332L61.8532 18.0221ZM91.0477 40.1961C91.3734 40.007 91.5739 39.6577 91.5739 39.2811V36.8279C91.5739 36.4505 91.3732 36.1023 91.0469 35.9123L82.3357 30.8553C82.0067 30.6649 81.6032 30.6649 81.2742 30.8553L72.5092 35.9144C72.1802 36.1048 71.9795 36.4524 71.9795 36.831V46.9493C71.9795 47.33 72.1843 47.6818 72.5133 47.8701L81.2225 52.834C81.5432 53.0182 81.9363 53.0202 82.2612 52.8402L87.5293 49.9123C87.6948 49.8192 87.8004 49.6433 87.8004 49.453C87.8004 49.2626 87.699 49.0847 87.5334 48.9915L78.7146 43.9304C78.5491 43.8372 78.4477 43.6614 78.4477 43.4731V40.299C78.4477 40.1094 78.547 39.9348 78.7126 39.8404L81.4563 38.2575C81.6197 38.1623 81.8205 38.1623 81.9839 38.2575L84.7297 39.8404C84.8932 39.9335 84.9946 40.1094 84.9946 40.2977V42.7931C84.9946 42.9814 85.096 43.1573 85.2594 43.2525C85.4229 43.3456 85.6257 43.3456 85.7891 43.2504L91.0477 40.1961Z" fill="#fff"/>
<path fill-rule="evenodd" clip-rule="evenodd" d="M81.6765 39.7228C81.7386 39.6862 81.8164 39.6862 81.8793 39.7228L83.5615 40.6932C83.6244 40.7296 83.6629 40.7967 83.6629 40.8691V42.8121C83.6629 42.8845 83.6244 42.9515 83.5615 42.9879L81.8793 43.9584C81.8164 43.995 81.7386 43.995 81.6765 43.9584L79.9953 42.9879C79.9312 42.9515 79.8918 42.8845 79.8918 42.8121V40.8691C79.8918 40.7967 79.9291 40.7296 79.9932 40.6932L81.6765 39.7228Z" fill="#fff"/>
<mask id="mask0_151_73" style="mask-type:luminance" maskUnits="userSpaceOnUse" x="24" y="30" width="20" height="24">
<path d="M33.2965 30.9058L24.5791 35.9374C24.2525 36.1257 24.0522 36.4734 24.0522 36.8491V46.9194C24.0522 47.2953 24.2525 47.6427 24.5791 47.831L33.2971 52.8666C33.623 53.0542 34.0248 53.0542 34.3503 52.8666L43.0669 47.831C43.3917 47.6427 43.5925 47.2951 43.5925 46.9194V36.8491C43.5925 36.4734 43.3917 36.1257 43.0648 35.9374L34.3495 30.9058C34.186 30.8121 34.0039 30.7651 33.8218 30.7651C33.6397 30.7651 33.4577 30.8121 33.2942 30.9058" fill="white"/>
</mask>
<g mask="url(#mask0_151_73)">
<path d="M52.4016 35.083L27.8375 23.0425L15.2424 48.7362L39.806 60.7773L52.4016 35.083Z" fill="#fff"/>
</g>
<path d="M24.2681 47.5585C24.3515 47.6667 24.4557 47.7604 24.5784 47.8308L32.0564 52.1502L33.3021 52.8661C33.4883 52.9737 33.7006 53.0192 33.9092 53.0037C33.9787 52.9981 34.0482 52.9851 34.1161 52.9658L43.3102 36.1311C43.2399 36.0545 43.1575 35.9904 43.0652 35.9366L37.3572 32.6404L34.34 30.9043C34.2543 30.8547 34.1614 30.8195 34.0668 30.7947L24.2681 47.5585Z" fill="#fff"/>
</g>
<defs>
<clipPath id="clip0_151_73">
<rect width="91.5341" height="91.5341" fill="white" transform="translate(0.0397949 0.563477)"/>
</clipPath>
</defs>
</svg>
