<svg width="93" height="93" viewBox="0 0 93 93" fill="none" xmlns="http://www.w3.org/2000/svg">
<g clip-path="url(#clip0_151_61)">
<mask id="mask0_151_61" style="mask-type:luminance" maskUnits="userSpaceOnUse" x="0" y="20" width="94" height="53">
<path d="M0.405518 20.2391H93.072V72.364H0.405518V20.2391Z" fill="white"/>
</mask>
<g mask="url(#mask0_151_61)">
<path fill-rule="evenodd" clip-rule="evenodd" d="M46.7387 69.6995C22.1736 69.6995 2.25879 59.2236 2.25879 46.3013C2.25879 33.3792 22.1736 22.9032 46.7387 22.9032C71.3039 22.9032 91.2188 33.3792 91.2188 46.3013C91.2188 59.2236 71.3039 69.6995 46.7387 69.6995ZM26.4252 48.9868C28.3663 48.9868 29.8153 48.6288 30.7321 47.9232C31.6392 47.2248 32.2656 46.0148 32.594 44.327C32.9002 42.7495 32.7835 41.6479 32.2475 41.0535C31.6994 40.4463 30.5143 40.1384 28.7253 40.1384H25.6234L23.9038 48.9868H26.4252ZM16.2797 59.8863C16.1357 59.8863 15.999 59.822 15.9074 59.7107C15.8157 59.5995 15.7786 59.4531 15.8061 59.3117L20.3635 35.8633C20.4076 35.6367 20.6062 35.4729 20.8373 35.4729H30.6596C33.7465 35.4729 36.0442 36.3111 37.4884 37.9644C38.9404 39.6265 39.3887 41.9497 38.821 44.8695C38.59 46.0591 38.1926 47.1638 37.64 48.1529C37.0867 49.1431 36.3555 50.0593 35.4663 50.8766C34.402 51.8728 33.1973 52.5951 31.889 53.0202C30.6015 53.4396 28.948 53.6523 26.9745 53.6523H22.9972L21.8614 59.4957C21.8173 59.7226 21.6188 59.8863 21.3878 59.8863H16.2797ZM50.5328 53.6521C50.3886 53.6521 50.2521 53.5878 50.1605 53.4765C50.0687 53.3653 50.0315 53.2191 50.059 53.0775L52.075 42.7025C52.2667 41.7159 52.2194 41.0077 51.9419 40.7084C51.772 40.5255 51.2617 40.2187 49.7528 40.2187H46.1006L43.5659 53.2615C43.5218 53.4884 43.3231 53.6521 43.0921 53.6521H38.0244C37.8803 53.6521 37.7437 53.5878 37.652 53.4765C37.5603 53.3653 37.5231 53.2189 37.5506 53.0775L42.108 29.6291C42.1521 29.4025 42.3508 29.2387 42.5818 29.2387H47.6495C47.7937 29.2387 47.9302 29.303 48.0219 29.4142C48.1136 29.5255 48.1508 29.6718 48.1233 29.8134L47.0235 35.4728H50.9525C53.9457 35.4728 55.9753 36.0005 57.1575 37.0861C58.3625 38.1936 58.7384 39.9644 58.2751 42.3499L56.1547 53.2615C56.1106 53.4884 55.9121 53.6521 55.6809 53.6521H50.5328ZM70.6005 47.9232C69.6837 48.6288 68.2346 48.9868 66.2936 48.9868H63.7722L65.4918 40.1384H68.5937C70.3827 40.1384 71.5677 40.4463 72.1158 41.0535C72.6521 41.6479 72.7687 42.7495 72.4625 44.327C72.134 46.015 71.5076 47.225 70.6005 47.9232ZM55.776 59.7107C55.8675 59.822 56.0043 59.8863 56.1482 59.8863H61.2562C61.4874 59.8863 61.6859 59.7226 61.7301 59.4957L62.8654 53.6523H66.8429C68.8164 53.6523 70.4699 53.4396 71.7574 53.0202C73.0657 52.5951 74.2703 51.8728 75.3347 50.8766C76.2239 50.0593 76.9551 49.1431 77.5084 48.1529C78.061 47.1638 78.4582 46.0591 78.6895 44.8695C79.2571 41.9496 78.8089 39.6263 77.357 37.9644C75.9126 36.3111 73.6151 35.4729 70.528 35.4729H60.7058C60.4746 35.4729 60.2761 35.6367 60.2318 35.8633L55.6745 59.3117C55.6469 59.4531 55.6843 59.5995 55.776 59.7107Z" fill="#999D9E"/>
</g>
</g>
<defs>
<clipPath id="clip0_151_61">
<rect width="91.5341" height="91.5341" fill="white" transform="translate(0.97168 0.563477)"/>
</clipPath>
</defs>
</svg>
