<svg width="24" height="25" viewBox="0 0 24 25" fill="none" xmlns="http://www.w3.org/2000/svg">
<path d="M12 12.6021H12.01M16 6.60205V4.60205C16 4.07162 15.7893 3.56291 15.4142 3.18784C15.0391 2.81276 14.5304 2.60205 14 2.60205H10C9.46957 2.60205 8.96086 2.81276 8.58579 3.18784C8.21071 3.56291 8 4.07162 8 4.60205V6.60205M22 13.6021C19.0328 15.561 15.5555 16.6054 12 16.6054C8.44445 16.6054 4.96721 15.561 2 13.6021M4 6.60205H20C21.1046 6.60205 22 7.49748 22 8.60205V18.6021C22 19.7066 21.1046 20.6021 20 20.6021H4C2.89543 20.6021 2 19.7066 2 18.6021V8.60205C2 7.49748 2.89543 6.60205 4 6.60205Z" stroke="white" stroke-linecap="round" stroke-linejoin="round"/>
</svg>
