<svg width="24" height="25" viewBox="0 0 24 25" fill="none" xmlns="http://www.w3.org/2000/svg">
<path d="M12 12.6016H12.01M16 6.60156V4.60156C16 4.07113 15.7893 3.56242 15.4142 3.18735C15.0391 2.81227 14.5304 2.60156 14 2.60156H10C9.46957 2.60156 8.96086 2.81227 8.58579 3.18735C8.21071 3.56242 8 4.07113 8 4.60156V6.60156M22 13.6016C19.0328 15.5605 15.5555 16.6049 12 16.6049C8.44445 16.6049 4.96721 15.5605 2 13.6016M4 6.60156H20C21.1046 6.60156 22 7.49699 22 8.60156V18.6016C22 19.7061 21.1046 20.6016 20 20.6016H4C2.89543 20.6016 2 19.7061 2 18.6016V8.60156C2 7.49699 2.89543 6.60156 4 6.60156Z" stroke="white" stroke-width="2" stroke-linecap="round" stroke-linejoin="round"/>
</svg>
