<svg width="267" height="266" viewBox="0 0 267 266" fill="none" xmlns="http://www.w3.org/2000/svg">
<path d="M110.592 9.9699C112.936 9.59675 114.895 11.2643 116.201 11.0544C116.971 10.9261 117.262 10.3897 117.029 8.93208L119.933 8.46564C120.422 11.5091 119.373 13.5148 117.274 13.853C114.93 14.2261 112.971 12.5586 111.665 12.7685C110.895 12.8968 110.604 13.4332 110.837 14.8908L107.933 15.3572C107.444 12.3137 108.493 10.3081 110.592 9.9699Z" fill="white"/>
<path d="M145.633 17.8527C139.441 17.2347 137.377 14.471 137.809 10.1332L141.703 10.518C141.447 13.1533 142.671 14.1095 146.088 14.4477C148.595 14.6926 149.481 14.1912 149.575 13.2699C149.703 12.0222 147.662 11.2643 145.237 10.1565C141.727 8.58225 138.87 7.31121 139.208 3.94121C139.5 1.01432 141.972 -0.36167 146.414 0.0814449C151.685 0.606186 153.784 3.52141 153.434 6.93806L149.54 6.55325C149.75 4.45429 148.199 3.70799 146.076 3.49809C144.316 3.32318 143.184 3.60304 143.103 4.47761C143.021 5.25889 143.406 5.59706 146.076 6.78647C149.143 8.17412 153.854 10.0165 153.504 13.6081C153.213 16.5583 150.939 18.3774 145.645 17.8527H145.633Z" fill="white"/>
<path d="M166.331 3.53308C171.007 4.71083 173.456 8.05751 172.908 12.3137L169.107 11.3576C169.282 9.04869 167.812 7.45114 165.538 6.8681C162.611 6.13346 160.233 7.47447 159.37 10.9261C158.495 14.3894 159.964 16.7099 162.88 17.4446C165.165 18.0159 167.218 17.2696 168.15 15.159L171.952 16.1152C170.413 20.1499 166.669 21.934 161.993 20.7562C156.676 19.4152 154.332 14.8675 155.568 9.9699C156.793 5.09564 161.014 2.19207 166.331 3.53308Z" fill="white"/>
<path d="M178.33 7.24125L184.499 9.82997C188.289 11.4275 191.216 13.6897 189.711 17.258C188.615 19.8817 186.178 19.7068 184.173 19.1237L183.788 20.0216L186.108 21.0011C187.356 21.5259 187.741 22.4821 187.216 23.7298L185.082 28.8139L181.467 27.298L183.823 21.7008L177.596 19.0771L175.24 24.6743L171.625 23.1584L178.319 7.24125H178.33ZM181.479 16.9898C183.624 17.8877 184.954 18.4474 185.793 16.465C186.645 14.4594 185.304 13.8996 183.158 12.9901L180.604 11.9173L178.925 15.917L181.479 16.9898Z" fill="white"/>
<path d="M202.597 18.7622C207.261 21.5958 208.112 26.61 205.512 30.9012C202.888 35.2158 198.049 36.7667 193.385 33.9331C188.697 31.0878 187.846 26.0736 190.469 21.7591C193.07 17.4679 197.909 15.917 202.597 18.7622ZM195.169 31.0062C197.956 32.697 200.439 31.7175 202.165 28.8722C203.879 26.0503 203.6 23.3916 200.824 21.7008C198.037 20.01 195.53 20.9778 193.816 23.7997C192.09 26.645 192.382 29.3154 195.169 31.0062Z" fill="white"/>
<path d="M203.25 37.9095L212.998 25.922L216.042 28.3942L207.156 39.3204L213.826 44.4279L211.669 47.0866L203.588 40.8363C202.527 40.0084 202.399 38.9589 203.25 37.9095Z" fill="white"/>
<path d="M213.92 46.7718L224.997 36.0087L227.726 38.819L217.628 48.6258L223.656 54.4796L221.196 56.8701L213.908 49.722C212.952 48.7774 212.952 47.7163 213.908 46.7834L213.92 46.7718Z" fill="white"/>
<path d="M249.719 74.7696L246.908 69.8837L234.909 76.787L232.95 73.3936L244.949 66.4904L242.127 61.5811L245.101 59.867L252.692 73.0438L249.719 74.758V74.7696Z" fill="white"/>
<path d="M257.123 82.7807C259.176 87.8415 256.867 92.3776 252.202 94.2667C247.526 96.1557 242.71 94.5116 240.658 89.4507C238.594 84.3666 240.915 79.8305 245.591 77.9414C250.243 76.0523 255.059 77.6965 257.123 82.7807ZM243.841 88.1564C245.066 91.1765 247.643 91.8762 250.733 90.6285C253.8 89.3808 255.164 87.0835 253.94 84.0634C252.715 81.0432 250.127 80.3202 247.06 81.5679C243.97 82.8156 242.617 85.1362 243.841 88.1564Z" fill="white"/>
<path d="M265.309 111.536L265.916 119.221L249.882 123.011L249.963 123.99L266.394 125.226L267 132.911L249.789 134.264L249.485 130.357L263.28 129.273L265.776 129.809L265.694 128.83L249.24 127.349L248.646 119.781L264.668 115.746L264.586 114.767L262.207 115.688L248.413 116.772L248.109 112.866L265.321 111.513L265.309 111.536Z" fill="white"/>
<path d="M265.263 153.306L254.185 145.855L248.646 145.353L248.996 141.447L254.534 141.948L266.767 136.631L266.394 140.805L258.896 143.814L256.703 143.616L256.61 144.595L258.802 144.793L265.647 149.12L265.274 153.294L265.263 153.306Z" fill="white"/>
<path d="M250.197 183.531C245.276 181.712 245.649 178.307 247.165 174.214L247.958 172.08L243.13 170.296L244.494 166.623L260.691 172.605L258.546 178.412C257.042 182.505 255.094 185.338 250.208 183.531H250.197ZM251.549 179.858C253.777 180.686 254.418 179.636 255.234 177.456L256.109 175.088L251.164 173.258L250.29 175.625C249.485 177.805 249.299 179.018 251.549 179.846V179.858Z" fill="white"/>
<path d="M254.406 188.918L251.258 194.819C249.322 198.445 246.792 201.151 243.387 199.332C240.88 197.991 241.276 195.6 242.034 193.641L241.171 193.175L239.982 195.402C239.352 196.591 238.349 196.894 237.16 196.253L232.297 193.664L234.14 190.213L239.492 193.07L242.675 187.111L237.323 184.254L239.165 180.802L254.395 188.93L254.406 188.918ZM244.413 191.157C243.317 193.21 242.64 194.481 244.541 195.495C246.465 196.521 247.141 195.25 248.238 193.198L249.544 190.761L245.719 188.72L244.413 191.157Z" fill="white"/>
<path d="M240.705 212.042C237.451 216.426 232.379 216.823 228.344 213.838C224.286 210.829 223.178 205.873 226.432 201.477C229.697 197.069 234.769 196.685 238.816 199.681C242.85 202.667 243.958 207.634 240.693 212.042H240.705ZM229.195 203.518C227.26 206.13 228.006 208.707 230.688 210.689C233.347 212.66 236.017 212.625 237.953 210.013C239.888 207.389 239.154 204.812 236.495 202.841C233.825 200.859 231.131 200.906 229.195 203.529V203.518Z" fill="white"/>
<path d="M221.394 208.439L223.866 210.806L220.66 213.803C218.561 215.75 219.82 217.266 221.966 219.318L226.408 223.563L229.813 219.645L232.285 222.012L227.609 227.259C226.712 228.262 225.639 228.262 224.671 227.329L218.292 221.242C214.771 217.872 214.118 215.225 218.176 211.436L221.383 208.439H221.394Z" fill="white"/>
<path d="M223.26 231.212L213.803 239.107L211.611 236.472L218.059 231.084L215.832 228.414L210.316 233.008L208.124 230.373L213.64 225.778L211.401 223.085L204.952 228.472L202.76 225.837L212.217 217.942L223.283 231.201L223.26 231.212Z" fill="white"/>
<path d="M204.439 245.695C200.358 248.272 196.253 247.736 193.548 244.401L196.86 242.314C198.411 244.028 200.579 244.074 202.573 242.827C205.116 241.218 205.792 238.559 203.891 235.562C201.979 232.542 199.297 232.005 196.755 233.615C194.761 234.874 193.886 236.868 194.772 239.014L191.461 241.101C189.607 237.206 190.889 233.265 194.971 230.688C199.612 227.761 204.521 229.207 207.214 233.475C209.896 237.719 209.092 242.78 204.451 245.707L204.439 245.695Z" fill="white"/>
<path d="M180.138 254.021L185.269 251.689L179.543 239.095L183.111 237.474L188.837 250.068L193.991 247.724L195.414 250.849L181.572 257.135L180.15 254.01L180.138 254.021Z" fill="white"/>
<path d="M157.352 255.421C155.009 255.817 153.038 254.161 151.744 254.383C150.974 254.511 150.694 255.059 150.939 256.505L148.035 256.995C147.522 253.951 148.548 251.946 150.647 251.584C152.991 251.188 154.962 252.843 156.256 252.622C157.026 252.494 157.306 251.946 157.061 250.5L159.953 250.01C160.466 253.053 159.44 255.059 157.341 255.421H157.352Z" fill="white"/>
<path d="M122.253 247.818C128.445 248.377 130.532 251.129 130.136 255.467L126.229 255.117C126.474 252.482 125.227 251.537 121.81 251.223C119.303 250.989 118.417 251.502 118.335 252.435C118.218 253.683 120.271 254.429 122.708 255.514C126.229 257.065 129.098 258.312 128.783 261.671C128.515 264.598 126.055 265.997 121.612 265.589C116.341 265.111 114.219 262.207 114.534 258.791L118.44 259.14C118.253 261.239 119.804 261.974 121.927 262.161C123.687 262.324 124.818 262.032 124.9 261.158C124.97 260.376 124.585 260.05 121.915 258.872C118.836 257.508 114.114 255.7 114.44 252.121C114.708 249.17 116.971 247.328 122.265 247.818H122.253Z" fill="white"/>
<path d="M101.648 262.277C96.9605 261.134 94.5001 257.811 95.0015 253.555L98.803 254.488C98.6397 256.797 100.121 258.382 102.406 258.942C105.333 259.653 107.7 258.289 108.551 254.849C109.403 251.374 107.922 249.077 104.995 248.366C102.709 247.806 100.657 248.564 99.7358 250.686L95.9344 249.753C97.4503 245.707 101.17 243.9 105.858 245.042C111.187 246.337 113.554 250.873 112.365 255.782C111.175 260.656 106.977 263.595 101.648 262.289V262.277Z" fill="white"/>
<path d="M89.6258 258.686L83.4455 256.144C79.6441 254.581 76.6939 252.33 78.1748 248.751C79.2593 246.127 81.6847 246.278 83.7021 246.838L84.0752 245.929L81.743 244.972C80.4953 244.459 80.0988 243.503 80.6119 242.255L82.7109 237.16L86.3374 238.652L84.0286 244.273L90.2788 246.85L92.5877 241.229L96.2142 242.722L89.6375 258.686H89.6258ZM86.3957 248.96C84.2385 248.074 82.9091 247.526 82.0929 249.52C81.2649 251.537 82.5943 252.086 84.7515 252.972L87.3053 254.021L88.9611 250.01L86.3957 248.96Z" fill="white"/>
<path d="M65.2545 247.351C60.5668 244.553 59.6689 239.55 62.246 235.235C64.8347 230.909 69.6623 229.312 74.35 232.11C79.061 234.921 79.9472 239.923 77.3702 244.261C74.7931 248.576 69.9655 250.173 65.2545 247.363V247.351ZM72.5892 235.049C69.7906 233.381 67.3068 234.384 65.6043 237.241C63.9135 240.075 64.205 242.733 67.0036 244.401C69.8022 246.068 72.2977 245.077 74.0002 242.244C75.7027 239.387 75.3878 236.716 72.5892 235.049Z" fill="white"/>
<path d="M64.4615 228.204L54.8063 240.261L51.7512 237.813L60.5551 226.828L53.8501 221.767L55.9957 219.097L64.1234 225.289C65.1845 226.117 65.3245 227.154 64.4849 228.216L64.4615 228.204Z" fill="white"/>
<path d="M53.7335 219.435L42.7256 230.291L39.9736 227.504L50.002 217.616L43.9267 211.809L46.3638 209.395L53.7102 216.496C54.678 217.441 54.6897 218.49 53.7218 219.447L53.7335 219.435Z" fill="white"/>
<path d="M17.7363 191.729L20.5815 196.591L32.5106 189.595L34.493 192.976L22.5639 199.973L25.4208 204.847L22.4589 206.585L14.7744 193.466L17.7363 191.729Z" fill="white"/>
<path d="M10.2499 183.764C8.16264 178.715 10.4365 174.167 15.0776 172.243C19.7419 170.308 24.5696 171.917 26.6569 176.966C28.7558 182.038 26.4819 186.586 21.8176 188.522C17.1765 190.446 12.3489 188.837 10.2499 183.764ZM23.4851 178.284C22.2374 175.275 19.6486 174.599 16.5702 175.87C13.515 177.141 12.1623 179.45 13.4101 182.458C14.6578 185.467 17.2582 186.166 20.3133 184.907C23.3918 183.636 24.7328 181.304 23.4851 178.295V178.284Z" fill="white"/>
<path d="M1.84242 155.078L1.17775 147.394L17.1882 143.487L17.1066 142.508L0.664672 141.388L0 133.704L17.1999 132.223L17.538 136.129L3.75482 137.319L1.24772 136.794L1.32934 137.774L17.7946 139.138L18.4476 146.694L2.46045 150.845L2.54208 151.825L4.92091 150.88L18.7041 149.691L19.0423 153.597L1.84242 155.078Z" fill="white"/>
<path d="M1.56256 113.286L12.6987 120.655L18.2377 121.11L17.9112 125.017L12.3722 124.562L0.174914 129.961L0.524741 125.786L8.01105 122.719L10.2033 122.906L10.2849 121.926L8.09268 121.74L1.2244 117.46L1.57422 113.286H1.56256Z" fill="white"/>
<path d="M16.3952 82.9439C21.3278 84.7164 20.978 88.133 19.4971 92.2377L18.7274 94.3833L23.5667 96.1324L22.2374 99.8173L5.99371 93.9635L8.09268 88.133C9.57361 84.0284 11.486 81.1831 16.3952 82.9556V82.9439ZM15.0659 86.6288C12.827 85.8242 12.1973 86.8737 11.4044 89.0542L10.5531 91.4331L15.509 93.2172L16.3603 90.8384C17.1532 88.6461 17.3281 87.4334 15.0659 86.6171V86.6288Z" fill="white"/>
<path d="M12.139 77.5916L15.2408 71.6678C17.1532 68.0296 19.6603 65.301 23.0886 67.0967C25.6074 68.4144 25.2342 70.8166 24.4763 72.7756L25.3392 73.2304L26.5053 70.9915C27.135 69.8021 28.1261 69.4872 29.3155 70.1169L34.2015 72.6707L32.3824 76.1456L27.0067 73.3237L23.8699 79.3057L29.2456 82.1277L27.4265 85.6026L12.139 77.5916ZM22.1208 75.271C23.2052 73.2071 23.8699 71.9244 21.9575 70.9332C20.0218 69.9187 19.3571 71.2014 18.2727 73.2654L16.99 75.7141L20.8264 77.7315L22.1091 75.2827L22.1208 75.271Z" fill="white"/>
<path d="M25.6424 54.3863C28.8608 49.9668 33.9216 49.5354 37.9796 52.4973C42.0609 55.4708 43.2037 60.4267 39.9969 64.8345C36.7669 69.2657 31.6944 69.6971 27.6247 66.7352C23.5667 63.785 22.4123 58.8291 25.6424 54.3863ZM37.2333 62.8172C39.1457 60.1818 38.3761 57.6164 35.6824 55.6574C33.0121 53.71 30.33 53.7683 28.4177 56.4037C26.5053 59.039 27.2632 61.6161 29.9336 63.5635C32.6272 65.5225 35.3209 65.4525 37.2333 62.8172Z" fill="white"/>
<path d="M44.9878 57.838L42.4924 55.4941L45.6758 52.4739C47.7631 50.5032 46.4921 48.999 44.3348 46.97L39.857 42.7604L36.4753 46.7018L33.9799 44.3579L38.621 39.0755C39.5072 38.061 40.58 38.0611 41.5595 38.9823L47.973 45.0226C51.5179 48.3576 52.1943 51.0047 48.1712 54.8178L44.9878 57.838Z" fill="white"/>
<path d="M42.9588 35.0759L52.3575 27.1114L54.5731 29.7235L48.1596 35.1575L50.4101 37.8162L55.8791 33.1751L58.0947 35.7872L52.6257 40.4282L54.8879 43.0986L61.3014 37.6646L63.517 40.2766L54.1183 48.241L42.9588 35.0642V35.0759Z" fill="white"/>
<path d="M61.6513 20.4531C65.7093 17.841 69.8139 18.3541 72.5542 21.6541L69.2542 23.7764C67.6916 22.0739 65.5227 22.039 63.5403 23.31C61.0099 24.9425 60.3569 27.6012 62.281 30.5864C64.2167 33.5949 66.8987 34.108 69.4408 32.4755C71.4231 31.2044 72.286 29.1988 71.3765 27.0648L74.6765 24.9425C76.5656 28.8256 75.3062 32.767 71.2482 35.379C66.6305 38.3409 61.7096 36.9299 58.9809 32.697C56.2639 28.4758 57.0335 23.4149 61.6513 20.4414V20.4531Z" fill="white"/>
<path d="M85.871 11.9289L80.7635 14.2961L86.5823 26.8432L83.0257 28.4874L77.2069 15.9403L72.0761 18.3191L70.6302 15.2057L84.425 8.80381L85.871 11.9173V11.9289Z" fill="white"/>
</svg>
