<svg width="92" height="93" viewBox="0 0 92 93" fill="none" xmlns="http://www.w3.org/2000/svg">
<g clip-path="url(#clip0_151_161)">
<path fill-rule="evenodd" clip-rule="evenodd" d="M75.3933 1.53442H16.2775C7.31481 1.53442 0.0683594 8.78087 0.0683594 17.7436V74.571C0.0683594 83.5337 7.31481 90.7802 16.2775 90.7802H75.3933C84.356 90.7802 91.6024 83.5337 91.6024 74.571V17.7436C91.6024 8.78087 84.356 1.53442 75.3933 1.53442ZM20.8396 24.8886V64.1338C20.8396 64.4771 20.9922 64.6297 21.2973 64.6297H28.5437H28.6963C28.9632 64.5915 29.1539 64.3627 29.1158 64.0957V51.853C29.8405 51.853 30.3744 51.853 30.7558 51.8912C31.1372 51.9293 31.7474 51.9293 32.6628 51.9293C35.7902 51.9293 38.6506 51.586 41.2441 50.6326C43.7231 49.7172 45.8589 48.1154 47.3845 45.9796C48.9101 43.8438 49.6728 41.1359 49.6728 37.8559C49.6728 36.1397 49.3677 34.4997 48.7956 32.8978C48.1854 31.2578 47.2319 29.7704 46.0115 28.55C44.5622 27.1388 42.8078 26.0709 40.9008 25.4225C38.765 24.6216 36.1716 24.2402 33.0441 24.2402C31.9 24.2402 30.7558 24.2402 29.5735 24.2784C29.0028 24.2968 28.4499 24.3063 27.9148 24.3155L27.9146 24.3155L27.9144 24.3155C27.341 24.3254 26.788 24.3349 26.2554 24.3547C25.7559 24.3731 25.2744 24.3827 24.8065 24.3919C24.3097 24.4018 23.8282 24.4113 23.3568 24.4309C22.4796 24.4691 21.8694 24.4691 21.2211 24.4691H21.221C20.954 24.4691 20.8396 24.6216 20.8396 24.8886ZM29.1539 44.6447V31.8299C29.4209 31.7918 29.9549 31.7537 30.7177 31.7918C31.4423 31.7537 32.3195 31.7537 33.3111 31.7537C34.8748 31.7155 36.4004 31.9444 37.8115 32.5164C38.9176 32.936 39.8329 33.6988 40.4813 34.6904C41.0915 35.7201 41.3966 36.9025 41.3585 38.0848C41.3585 39.7629 40.9771 41.0596 40.1762 42.0131C39.3371 42.9666 38.2692 43.6912 37.0488 44.0345C35.6376 44.4922 34.1502 44.721 32.6628 44.721H30.6414C30.2165 44.721 29.7588 44.6881 29.2682 44.6529L29.1539 44.6447ZM69.8103 41.0215C71.107 41.2885 72.3275 41.708 73.4716 42.3183C73.6242 42.3945 73.8149 42.3945 74.1581 42.3183C74.2726 42.242 74.3488 42.0894 74.3488 41.9369V35.7202C74.3488 35.5676 74.3107 35.4151 74.2726 35.2625C74.1963 35.1099 74.0437 34.9574 73.8912 34.9193C72.8614 34.4997 71.7554 34.1946 70.6112 34.042C69.0475 33.8132 67.4456 33.6988 65.8819 33.6988C63.1741 33.6988 60.9238 34.1183 59.1313 35.0337C57.4913 35.7965 56.0802 37.0169 55.1267 38.5425C54.2876 39.9536 53.83 41.5173 53.83 43.1573C53.7918 44.4922 54.0969 45.8271 54.7072 47.0475C55.4318 48.3442 56.4234 49.4503 57.6057 50.2894C59.2839 51.4335 61.0764 52.3489 63.0215 53.0354C64.8903 53.76 66.1489 54.3321 66.7591 54.8279C67.3694 55.3237 67.6745 55.8195 67.6745 56.3535C67.6745 57.04 67.255 57.6884 66.6447 57.9553C65.9582 58.2986 64.9285 58.4893 63.4792 58.4893C61.9536 58.4893 60.428 58.2986 58.9787 57.9172C57.3006 57.5358 55.7369 56.9256 54.2495 56.0484C54.1351 55.9721 54.0206 55.934 53.9062 56.0102C53.7918 56.0865 53.7537 56.2391 53.7537 56.3535V62.9897C53.7155 63.2948 53.9062 63.5618 54.1732 63.7143C55.3937 64.2864 56.7285 64.706 58.0634 64.9348C59.7797 65.2781 61.4959 65.4306 63.2503 65.4306C65.9964 65.4306 68.2847 65.0111 70.1535 64.2102C71.8698 63.5237 73.3572 62.3413 74.4251 60.8158C75.4167 59.3283 75.9507 57.5358 75.9126 55.7433C75.9507 54.3702 75.6456 53.0354 75.0354 51.8149C74.3107 50.5182 73.2809 49.4503 72.0224 48.6494C70.1917 47.5052 68.2084 46.5517 66.1489 45.8652C65.2336 45.4838 64.3182 45.0643 63.441 44.6066C62.9452 44.3396 62.4876 43.9964 62.1443 43.5769C61.9155 43.2717 61.7629 42.9285 61.7629 42.5852C61.7629 42.242 61.8773 41.8606 62.068 41.5555C62.335 41.1741 62.7545 40.9071 63.2503 40.7927C63.975 40.602 64.7759 40.4876 65.5387 40.5257C66.988 40.5257 68.3991 40.7164 69.8103 41.0215Z" fill="#999D9E"/>
</g>
<defs>
<clipPath id="clip0_151_161">
<rect width="91.5341" height="91.5341" fill="white" transform="translate(0.244385 0.631592)"/>
</clipPath>
</defs>
</svg>
