<svg width="92" height="93" viewBox="0 0 92 93" fill="none" xmlns="http://www.w3.org/2000/svg">
<g clip-path="url(#clip0_151_98)">
<path d="M24.4898 34.8887C14.4325 37.4821 7.87256 41.9254 7.87256 46.9979C7.87256 55.0338 24.6729 61.5861 45.4397 61.5861C48.262 61.5861 50.2452 61.4374 52.8768 61.2162" stroke="#999D9E" stroke-width="3.81392" stroke-linecap="round" stroke-linejoin="round"/>
<path d="M37.7621 61.2048C36.1869 58.9317 34.688 56.8836 33.2616 54.3398C22.7695 35.6516 19.9587 17.0778 27.045 12.871C31.431 10.2127 38.666 13.8359 46.0154 21.4676" stroke="#999D9E" stroke-width="3.81392" stroke-linecap="round" stroke-linejoin="round"/>
<path d="M24.7643 59.2483C22.0869 69.5001 22.6285 77.2348 26.9001 79.8244C33.7003 83.9435 47.4457 72.3568 57.5754 53.8745C58.9485 51.3192 60.1804 48.8058 61.2673 46.3306" stroke="#999D9E" stroke-width="3.81392" stroke-linecap="round" stroke-linejoin="round"/>
<path d="M46.0117 71.1974C53.365 78.8252 60.5695 82.4484 64.9974 79.7901C72.0532 75.5872 69.2728 57.0134 58.7693 38.3214C57.3047 35.7393 55.8059 33.7294 54.2689 31.4563" stroke="#999D9E" stroke-width="3.81392" stroke-linecap="round" stroke-linejoin="round"/>
<path d="M67.5986 57.7722C77.5605 55.152 84.151 50.7164 84.151 45.6591C84.151 37.6118 67.3392 31.0747 46.6029 31.0747C43.7539 31.0747 41.7745 31.1853 39.1467 31.4065" stroke="#999D9E" stroke-width="3.81392" stroke-linecap="round" stroke-linejoin="round"/>
<path d="M30.7561 46.3305C31.8431 43.8133 33.0712 41.3419 34.448 38.7865C44.5434 20.3119 58.2964 8.6947 65.1348 12.8481C69.3682 15.4377 69.9479 23.1685 67.2706 33.4165" stroke="#999D9E" stroke-width="3.81392" stroke-linecap="round" stroke-linejoin="round"/>
<path d="M47.0033 46.3877H46.9651C46.927 46.8835 46.5074 47.303 45.9735 47.303C45.7181 47.2904 45.4772 47.1807 45.3 46.9964C45.1228 46.8121 45.0226 46.5671 45.02 46.3114C45.02 45.7775 45.4395 45.3579 45.9354 45.3579H45.8972C46.393 45.3198 46.8507 45.7775 46.8507 46.2733" stroke="#999D9E" stroke-width="3.81392" stroke-linecap="round" stroke-linejoin="round"/>
</g>
<defs>
<clipPath id="clip0_151_98">
<rect width="91.5341" height="91.5341" fill="white" transform="translate(0.244629 0.563477)"/>
</clipPath>
</defs>
</svg>
