<svg width="92" height="93" viewBox="0 0 92 93" fill="none" xmlns="http://www.w3.org/2000/svg">
<g clip-path="url(#clip0_151_93)">
<path d="M45.9434 54.9337C50.4492 54.9337 54.1019 51.281 54.1019 46.7752C54.1019 42.2694 50.4492 38.6167 45.9434 38.6167C41.4376 38.6167 37.785 42.2694 37.785 46.7752C37.785 51.281 41.4376 54.9337 45.9434 54.9337Z" fill="#999D9E"/>
<path d="M45.9434 54.9337C50.4492 54.9337 54.1019 51.281 54.1019 46.7752C54.1019 42.2694 50.4492 38.6167 45.9434 38.6167C41.4376 38.6167 37.785 42.2694 37.785 46.7752C37.785 51.281 41.4376 54.9337 45.9434 54.9337Z" stroke="#999D9E" stroke-width="3.97974"/>
<path d="M45.9434 63.4901C70.1209 63.4901 89.7206 56.0066 89.7206 46.7752C89.7206 37.5438 70.1209 30.0603 45.9434 30.0603C21.766 30.0603 2.16626 37.5438 2.16626 46.7752C2.16626 56.0066 21.766 63.4901 45.9434 63.4901Z" stroke="#999D9E" stroke-width="3.97974"/>
<path d="M31.4679 55.1327C43.5566 76.071 59.8374 89.3031 67.832 84.6874C75.8267 80.0717 72.5077 59.3561 60.419 38.4178C48.3302 17.4795 32.0495 4.24738 24.0548 8.86308C16.0602 13.4788 19.3792 34.1944 31.4679 55.1327Z" stroke="#999D9E" stroke-width="3.97974"/>
<path d="M31.4679 38.4178C19.3792 59.3561 16.0602 80.0717 24.0548 84.6874C32.0495 89.3031 48.3302 76.071 60.419 55.1327C72.5077 34.1944 75.8266 13.4788 67.832 8.86308C59.8374 4.24738 43.5566 17.4795 31.4679 38.4178Z" stroke="#999D9E" stroke-width="3.97974"/>
</g>
<defs>
<clipPath id="clip0_151_93">
<rect width="91.5341" height="91.5341" fill="white" transform="translate(0.17627 0.563477)"/>
</clipPath>
</defs>
</svg>
