<svg width="24" height="24" viewBox="0 0 24 24" fill="none" xmlns="http://www.w3.org/2000/svg">
<path d="M12 13C12.5523 13 13 12.5523 13 12C13 11.4477 12.5523 11 12 11C11.4477 11 11 11.4477 11 12C11 12.5523 11.4477 13 12 13Z" stroke="white" stroke-linecap="round" stroke-linejoin="round"/>
<path d="M20.2 20.1999C22.24 18.1699 20.22 12.8399 15.7 8.29989C11.16 3.77989 5.83001 1.75989 3.80001 3.79989C1.76001 5.82989 3.78001 11.1599 8.30001 15.6999C12.84 20.2199 18.17 22.2399 20.2 20.1999Z" stroke="white" stroke-linecap="round" stroke-linejoin="round"/>
<path d="M15.7 15.6999C20.22 11.1599 22.24 5.82989 20.2 3.79989C18.17 1.75989 12.84 3.77989 8.30001 8.29989C3.78001 12.8399 1.76001 18.1699 3.80001 20.1999C5.83001 22.2399 11.16 20.2199 15.7 15.6999Z" stroke="white" stroke-linecap="round" stroke-linejoin="round"/>
</svg>
