<svg width="24" height="24" viewBox="0 0 24 24" fill="none" xmlns="http://www.w3.org/2000/svg">
<path d="M12 13C12.5523 13 13 12.5523 13 12C13 11.4477 12.5523 11 12 11C11.4477 11 11 11.4477 11 12C11 12.5523 11.4477 13 12 13Z" stroke="white" stroke-width="2" stroke-linecap="round" stroke-linejoin="round"/>
<path d="M20.2001 20.1994C22.2401 18.1694 20.2201 12.8394 15.7001 8.2994C11.1601 3.7794 5.83013 1.7594 3.80013 3.7994C1.76013 5.8294 3.78013 11.1594 8.30013 15.6994C12.8401 20.2194 18.1701 22.2394 20.2001 20.1994Z" stroke="white" stroke-width="2" stroke-linecap="round" stroke-linejoin="round"/>
<path d="M15.7001 15.6994C20.2201 11.1594 22.2401 5.8294 20.2001 3.7994C18.1701 1.7594 12.8401 3.7794 8.30013 8.2994C3.78013 12.8394 1.76013 18.1694 3.80013 20.1994C5.83013 22.2394 11.1601 20.2194 15.7001 15.6994Z" stroke="white" stroke-width="2" stroke-linecap="round" stroke-linejoin="round"/>
</svg>
