<svg width="93" height="93" viewBox="0 0 93 93" fill="none" xmlns="http://www.w3.org/2000/svg">
<g clip-path="url(#clip0_151_126)">
<mask id="mask0_151_126" style="mask-type:luminance" maskUnits="userSpaceOnUse" x="0" y="18" width="93" height="55">
<path d="M0.90332 18.0232H92.4374V72.8935H0.90332V18.0232Z" fill="white"/>
</mask>
<g mask="url(#mask0_151_126)">
<path fill-rule="evenodd" clip-rule="evenodd" d="M46.6704 18.0232C34.4658 18.0232 26.838 24.1199 23.7868 36.3133C28.3635 30.2166 33.703 27.9303 39.8053 29.4545C43.287 30.3233 45.7754 32.8483 48.5299 35.641C53.0167 40.1915 58.2104 45.4583 69.5539 45.4583C81.7584 45.4583 89.3863 39.3616 92.4374 27.1682C87.8607 33.2649 82.5212 35.5512 76.4189 34.027C72.9373 33.1582 70.4489 30.6332 67.6944 27.8406C63.2075 23.2901 58.0138 18.0232 46.6704 18.0232ZM23.7868 45.4583C11.5823 45.4583 3.95446 51.555 0.90332 63.7484C5.48002 57.6517 10.8195 55.3655 16.9218 56.8896C20.4035 57.7601 22.8918 60.2835 25.6463 63.0761C30.1332 67.6266 35.3269 72.8935 46.6704 72.8935C58.8749 72.8935 66.5028 66.7968 69.5539 54.6034C64.9772 60.7001 59.6377 62.9863 53.5354 61.4622C50.0537 60.5934 47.5654 58.0683 44.8109 55.2757C40.324 50.7252 35.1303 45.4583 23.7868 45.4583Z" fill="#999D9E"/>
</g>
</g>
<defs>
<clipPath id="clip0_151_126">
<rect width="91.5341" height="91.5341" fill="white" transform="translate(0.90332 0.631592)"/>
</clipPath>
</defs>
</svg>
