<svg width="32" height="32" viewBox="0 0 32 32" fill="none" xmlns="http://www.w3.org/2000/svg">
<path d="M22.1334 18.6671C21.8667 18.5338 20.1334 17.7338 19.8667 17.6005C19.6001 17.4671 19.3334 17.4671 19.0667 17.7338C18.8001 18.0005 18.2667 18.8005 18.0001 19.0671C17.8667 19.3338 17.6001 19.3338 17.3334 19.2005C16.4001 18.8005 15.4667 18.2671 14.6667 17.6005C14.0001 16.9338 13.3334 16.1338 12.8001 15.3338C12.6667 15.0671 12.8001 14.8005 12.9334 14.6671C13.0667 14.5338 13.2001 14.2671 13.4667 14.1338C13.6001 14.0005 13.7334 13.7338 13.7334 13.6005C13.8667 13.4671 13.8667 13.2005 13.7334 13.0671C13.6001 12.9338 12.9334 11.3338 12.6667 10.6671C12.5334 9.73379 12.2667 9.73379 12.0001 9.73379C11.8667 9.73379 11.6001 9.73379 11.3334 9.73379C11.0667 9.73379 10.6667 10.0005 10.5334 10.1338C9.73341 10.9338 9.33341 11.8671 9.33341 12.9338C9.46675 14.1338 9.86675 15.3338 10.6667 16.4005C12.1334 18.5338 14.0001 20.2671 16.2667 21.3338C16.9334 21.6005 17.4667 21.8671 18.1334 22.0005C18.8001 22.2671 19.4667 22.2671 20.2667 22.1338C21.2001 22.0005 22.0001 21.3338 22.5334 20.5338C22.8001 20.0005 22.8001 19.4671 22.6667 18.9338C22.6667 18.9338 22.4001 18.8005 22.1334 18.6671ZM25.4667 6.53379C20.2667 1.33379 11.8667 1.33379 6.66675 6.53379C2.40008 10.8005 1.60008 17.3338 4.53341 22.5338L2.66675 29.3338L9.73341 27.4671C11.7334 28.5338 13.8667 29.0671 16.0001 29.0671C23.3334 29.0671 29.2001 23.2005 29.2001 15.8671C29.3334 12.4005 27.8667 9.06712 25.4667 6.53379ZM21.8667 25.2005C20.1334 26.2671 18.1334 26.9338 16.0001 26.9338C14.0001 26.9338 12.1334 26.4005 10.4001 25.4671L10.0001 25.2005L5.86675 26.2671L6.93341 22.2671L6.66675 21.8671C3.46675 16.5338 5.06675 9.86712 10.2667 6.53379C15.4667 3.20046 22.1334 4.93379 25.3334 10.0005C28.5334 15.2005 27.0667 22.0005 21.8667 25.2005Z" fill="white"/>
</svg>
